<?xml version="1.0" encoding="UTF-8" standalone="no"?>
<svg
   xmlns:dc="http://purl.org/dc/elements/1.1/"
   xmlns:cc="http://creativecommons.org/ns#"
   xmlns:rdf="http://www.w3.org/1999/02/22-rdf-syntax-ns#"
   xmlns:svg="http://www.w3.org/2000/svg"
   xmlns="http://www.w3.org/2000/svg"
   xmlns:sodipodi="http://sodipodi.sourceforge.net/DTD/sodipodi-0.dtd"
   xmlns:inkscape="http://www.inkscape.org/namespaces/inkscape"
   sodipodi:docname="cargobase.svg"
   inkscape:version="1.0beta2 (2b71d25, 2019-12-03)"
   id="svg8"
   version="1.1"
   viewBox="0 0 97.075562 110.41167"
   height="110.41167mm"
   width="97.075562mm">
  <defs
     id="defs2" />
  <sodipodi:namedview
     inkscape:window-maximized="0"
     inkscape:window-y="449"
     inkscape:window-x="2429"
     inkscape:window-height="779"
     inkscape:window-width="1440"
     fit-margin-bottom="0"
     fit-margin-right="0"
     fit-margin-left="0"
     fit-margin-top="0"
     showgrid="false"
     inkscape:document-rotation="0"
     inkscape:current-layer="layer1"
     inkscape:document-units="mm"
     inkscape:cy="271.23511"
     inkscape:cx="174.34567"
     inkscape:zoom="0.78374771"
     inkscape:pageshadow="2"
     inkscape:pageopacity="0.0"
     borderopacity="1.0"
     bordercolor="#666666"
     pagecolor="#ffffff"
     id="base" />
  <metadata
     id="metadata5">
    <rdf:RDF>
      <cc:Work
         rdf:about="">
        <dc:format>image/svg+xml</dc:format>
        <dc:type
           rdf:resource="http://purl.org/dc/dcmitype/StillImage" />
        <dc:title></dc:title>
      </cc:Work>
    </rdf:RDF>
  </metadata>
  <g
     transform="translate(-19.451529,-16.770296)"
     id="layer1"
     inkscape:groupmode="layer"
     inkscape:label="Layer 1">
    <path
       inkscape:connector-curvature="0"
       id="path914"
       d="m 51.155274,30.881246 c -2.253504,-1.30072 -4.178176,-2.44796 -4.27705,-2.54941 -0.09887,-0.10145 4.246906,-2.7443 9.657292,-5.873 l 9.837063,-5.68854 1.71979,7.9e-4 c 1.6624,7.7e-4 1.83238,0.0669 5.09323,1.98092 1.85539,1.08907 3.36927,2.04121 3.36418,2.11587 -0.005,0.0747 -4.25649,2.57653 -9.44755,5.55971 -5.19106,2.98318 -9.980855,5.73776 -10.643985,6.12129 l -1.205693,0.69733 z"
       style="fill:#2b71b8;fill-opacity:1;stroke-width:0.264583" />
    <path
       inkscape:connector-curvature="0"
       id="path912"
       d="m 63.514939,38.025046 c -2.299299,-1.32888 -4.085236,-2.51086 -3.968746,-2.62663 0.116491,-0.11576 4.919006,-2.93045 10.672246,-6.25486 l 10.46044,-6.04437 4.30354,2.48976 c 3.76755,2.17968 4.24419,2.5294 3.82705,2.80805 -0.90309,0.60326 -20.32096,11.75779 -20.7171,11.90086 -0.2214,0.08 -2.24523,-0.92491 -4.57743,-2.27281 z"
       style="fill:#2b71b8;fill-opacity:1;stroke-width:0.264583" />
    <path
       inkscape:connector-curvature="0"
       id="path910"
       d="m 99.445499,58.857976 -4.23333,-2.4725 -0.0687,-12.44059 -0.0687,-12.44059 4.3682,2.51355 4.368201,2.51356 v 12.41059 c 0,6.82582 -0.0298,12.40562 -0.0661,12.39954 -0.0364,-0.006 -1.97115,-1.12368 -4.299481,-2.48356 z"
       style="fill:#2b71b8;fill-opacity:1;stroke-width:0.264583" />
    <path
       inkscape:connector-curvature="0"
       id="path908"
       d="m 82.644459,48.953146 v -12.42174 l 4.3682,-2.51356 4.3682,-2.51355 -0.0687,12.4361 -0.0687,12.4361 -3.175,1.84827 c -1.74625,1.01654 -3.68102,2.14118 -4.29948,2.49919 l -1.12448,0.65094 z"
       style="fill:#2b71b8;fill-opacity:1;stroke-width:0.264583" />
    <path
       inkscape:connector-curvature="0"
       id="path906"
       d="m 48.910078,58.857976 -4.233333,-2.4725 -0.06872,-12.44059 -0.06872,-12.44059 4.3682,2.51355 4.368199,2.51356 v 12.41059 c 0,6.82582 -0.02976,12.40562 -0.06615,12.39954 -0.03638,-0.006 -1.971146,-1.12368 -4.299479,-2.48356 z"
       style="fill:#2b71b8;fill-opacity:1;stroke-width:0.264583" />
    <path
       inkscape:connector-curvature="0"
       id="path904"
       d="m 32.111275,49.005936 0.0022,-12.39189 4.117151,-2.38125 c 2.264432,-1.30969 4.227957,-2.42094 4.363387,-2.46945 0.149741,-0.0536 0.243363,4.76766 0.238911,12.30313 l -0.0073,12.39132 -3.101529,1.76844 c -1.705841,0.97265 -3.667076,2.08416 -4.3583,2.47002 l -1.256771,0.70157 0.0022,-12.39189 z"
       style="fill:#2b71b8;fill-opacity:1;stroke-width:0.264583" />
    <path
       inkscape:connector-curvature="0"
       id="path902"
       d="m 111.94706,66.070526 -4.16718,-2.41221 v -12.42379 -12.42379 l 0.99218,0.58588 c 0.54571,0.32223 1.94469,1.12673 3.10886,1.78778 2.59998,1.47635 3.49533,2.26395 4.12859,3.63173 0.45248,0.9773 0.49044,1.92438 0.49581,12.36927 0.003,6.22102 -0.0835,11.30788 -0.19263,11.30414 -0.10914,-0.004 -2.07367,-1.0923 -4.36563,-2.41901 z"
       style="fill:#2b71b8;fill-opacity:1;stroke-width:0.264583" />
    <path
       inkscape:connector-curvature="0"
       id="path900"
       d="m 70.007979,56.158306 0.0688,-12.33803 3.175,-1.83963 c 1.74625,-1.01179 3.68102,-2.1322 4.29948,-2.48979 l 1.12448,-0.65016 v 12.41564 12.41564 l -4.19377,2.41218 c -2.30657,1.3267 -4.27228,2.41218 -4.36824,2.41218 -0.096,0 -0.14353,-5.55211 -0.10571,-12.33803 z"
       style="fill:#2b71b8;fill-opacity:1;stroke-width:0.264583" />
    <path
       inkscape:connector-curvature="0"
       id="path898"
       d="m 61.411641,66.070526 -4.167188,-2.41221 v -12.40881 -12.40881 l 1.12448,0.65016 c 0.618463,0.35759 2.553229,1.478 4.299476,2.48979 l 3.175,1.83963 0.0688,12.33803 c 0.0378,6.78592 -0.0217,12.33497 -0.13229,12.33123 -0.11058,-0.004 -2.07629,-1.0923 -4.36824,-2.41901 z"
       style="fill:#2b71b8;fill-opacity:1;stroke-width:0.264583" />
    <path
       inkscape:connector-curvature="0"
       id="path896"
       d="m 19.592569,57.051806 c 0.175707,-14.58494 -0.384286,-12.95757 5.669627,-16.47618 l 2.883248,-1.67578 -0.06873,12.4425 -0.06873,12.44249 -3.175,1.84826 c -1.74625,1.01655 -3.671452,2.13558 -4.278227,2.48674 l -1.103228,0.63848 z"
       style="fill:#2b71b8;fill-opacity:1;stroke-width:0.264583" />
    <path
       inkscape:connector-curvature="0"
       id="path894"
       d="m 95.415809,70.793926 c -5.85434,-3.3737 -10.64661,-6.20634 -10.64948,-6.29477 -0.003,-0.0884 1.89584,-1.25293 4.21934,-2.58779 l 4.22456,-2.42702 10.740991,6.20446 10.741,6.20445 -1.80253,1.04107 c -0.99139,0.57258 -2.69549,1.55448 -3.7869,2.182 -1.0914,0.62752 -2.2225,1.29184 -2.51354,1.47627 -0.47311,0.2998 -1.65676,-0.31448 -11.173441,-5.79867 z"
       style="fill:#2b71b8;fill-opacity:1;stroke-width:0.264583" />
    <path
       inkscape:connector-curvature="0"
       id="path892"
       d="m 44.835418,70.779626 c -5.834501,-3.36584 -10.608528,-6.20012 -10.608949,-6.29841 -4.24e-4,-0.0983 1.891652,-1.26084 4.204608,-2.58343 l 4.205376,-2.40473 10.545146,6.09147 c 5.799831,3.3503 10.57237,6.17972 10.60564,6.28759 0.0333,0.10788 -1.83044,1.28313 -4.141573,2.61168 l -4.202065,2.41554 -7.576359,-4.370694 z"
       style="fill:#2b71b8;fill-opacity:1;stroke-width:0.264583" />
    <path
       inkscape:connector-curvature="0"
       id="path890"
       d="m 82.697379,78.018946 c -5.71898,-3.32044 -10.39229,-6.13677 -10.38515,-6.25851 0.0216,-0.36815 8.05083,-4.88737 8.47904,-4.77239 0.43275,0.1162 20.638201,11.74017 20.979021,12.069 0.20192,0.1948 -8.009331,5.07526 -8.453461,5.02441 -0.12173,-0.0139 -4.90049,-2.74207 -10.61945,-6.06251 z"
       style="fill:#2b71b8;fill-opacity:1;stroke-width:0.264583" />
    <path
       inkscape:connector-curvature="0"
       id="path888"
       d="m 32.210687,78.068546 c -5.692166,-3.30018 -10.374262,-6.1194 -10.404659,-6.26492 -0.05462,-0.26148 7.716274,-4.89479 8.209441,-4.89479 0.240941,0 20.794214,11.76996 21.203554,12.14235 0.187701,0.17075 -8.04004,5.07414 -8.451321,5.03663 -0.114194,-0.0104 -4.86485,-2.71908 -10.557015,-6.01927 z"
       style="fill:#2b71b8;fill-opacity:1;stroke-width:0.264583" />
    <path
       inkscape:connector-curvature="0"
       id="path886"
       d="m 107.84339,92.422696 0.0688,-12.3802 2.91041,-1.69026 c 1.60073,-0.92964 3.53909,-2.05004 4.30746,-2.48977 l 1.39703,-0.7995 -0.0741,11.75145 -0.0741,11.75145 -0.72279,1.09188 c -0.54965,0.830314 -1.48246,1.539854 -3.89387,2.961864 -1.74409,1.02848 -3.35478,1.94047 -3.57932,2.02663 -0.36495,0.14004 -0.40095,-1.15624 -0.33946,-12.223544 z"
       style="fill:#2b71b8;fill-opacity:1;stroke-width:0.264583" />
    <path
       inkscape:connector-curvature="0"
       id="path884"
       d="m 24.779118,102.93756 c -3.340582,-1.98925 -4.450556,-2.939724 -4.815987,-4.123924 -0.278469,-0.9024 -0.552642,-23.75533 -0.283635,-23.6416 0.09259,0.0392 2.032534,1.14274 4.310987,2.45243 l 4.142644,2.38125 0.0036,12.36927 c 0.002,6.8031 -0.08572,12.359934 -0.194858,12.348514 -0.109141,-0.0114 -1.53237,-0.81509 -3.162731,-1.78594 z"
       style="fill:#2b71b8;fill-opacity:1;stroke-width:0.264583" />
    <path
       inkscape:connector-curvature="0"
       id="path882"
       d="m 74.310079,102.50553 -4.23333,-2.46964 -0.0687,-12.485404 c -0.0378,-6.86697 0.0247,-12.44532 0.13886,-12.39634 0.11419,0.049 2.07876,1.16063 4.36571,2.47032 l 4.1581,2.38125 0.003,12.50156 c 10e-4,6.87586 -0.0272,12.493994 -0.0636,12.484734 -0.0364,-0.009 -1.97115,-1.12817 -4.29948,-2.48648 z"
       style="fill:#2b71b8;fill-opacity:1;stroke-width:0.264583" />
    <path
       inkscape:connector-curvature="0"
       id="path880"
       d="m 57.246972,92.528856 0.0026,-12.52314 4.158094,-2.38125 c 2.286953,-1.30969 4.251523,-2.42133 4.365713,-2.47032 0.11419,-0.049 0.17667,5.53137 0.13886,12.40079 l -0.0688,12.489844 -3.43958,1.97478 c -1.891771,1.08614 -3.826537,2.21276 -4.299479,2.50362 l -0.859896,0.52882 0.0026,-12.523144 z"
       style="fill:#2b71b8;fill-opacity:1;stroke-width:0.264583" />
    <path
       inkscape:connector-curvature="0"
       id="path878"
       d="m 95.083449,99.805366 0.004,-12.39132 4.14264,-2.38125 c 2.278451,-1.30969 4.241371,-2.42094 4.362041,-2.46944 0.12068,-0.0485 0.2178,5.4879 0.21583,12.30312 l -0.004,12.391324 -4.142651,2.38125 c -2.27845,1.30969 -4.24137,2.42094 -4.36204,2.46945 -0.12067,0.0485 -0.21779,-5.4879 -0.21583,-12.303134 z"
       style="fill:#2b71b8;fill-opacity:1;stroke-width:0.264583" />
    <path
       inkscape:connector-curvature="0"
       id="path876"
       d="m 86.811649,109.71059 -4.16719,-2.42767 V 94.901086 c 0,-6.81001 0.075,-12.38183 0.16676,-12.38183 0.0917,0 2.05625,1.09531 4.36563,2.43401 l 4.19886,2.43402 v 12.38265 c 0,6.810464 -0.0893,12.379434 -0.19844,12.375494 -0.10914,-0.004 -2.07367,-1.09962 -4.36562,-2.43484 z"
       style="fill:#2b71b8;fill-opacity:1;stroke-width:0.264583" />
    <path
       inkscape:connector-curvature="0"
       id="path874"
       d="m 44.544453,99.769936 v -12.38265 l 4.198861,-2.43402 c 2.309373,-1.3387 4.273905,-2.43401 4.365625,-2.43401 0.09172,0 0.166764,5.57219 0.166764,12.38265 v 12.382664 l -4.198861,2.43401 c -2.309373,1.33871 -4.273904,2.43401 -4.365625,2.43401 -0.09172,0 -0.166764,-5.57219 -0.166764,-12.382654 z"
       style="fill:#2b71b8;fill-opacity:1;stroke-width:0.264583" />
    <path
       inkscape:connector-curvature="0"
       id="path872"
       d="m 36.474661,109.67933 -4.233333,-2.45589 -0.06876,-12.352094 c -0.03782,-6.79365 0.008,-12.35209 0.101846,-12.35209 0.09383,0 2.059544,1.08817 4.368241,2.41817 l 4.197633,2.41817 v 12.3985 c 0,6.819174 -0.02977,12.394594 -0.06615,12.389814 -0.03638,-0.005 -1.971146,-1.11384 -4.299479,-2.46458 z"
       style="fill:#2b71b8;fill-opacity:1;stroke-width:0.264583" />
    <path
       inkscape:connector-curvature="0"
       id="path870"
       d="m 50.838576,118.15613 c -2.286307,-1.33415 -4.072245,-2.50604 -3.96875,-2.60418 0.426029,-0.40402 20.930983,-12.13061 21.211403,-12.13061 0.33082,0 7.59842,4.12275 8.15896,4.6284 0.26914,0.24278 -1.91091,1.60964 -10.16473,6.37315 -5.779042,3.33524 -10.636189,6.08543 -10.793656,6.11153 -0.157469,0.0261 -2.156923,-1.04413 -4.443227,-2.37829 z"
       style="fill:#2b71b8;fill-opacity:1;stroke-width:0.264583" />
    <path
       inkscape:connector-curvature="0"
       id="path847"
       d="m 66.637159,127.0457 c -0.58866,-0.14102 -6.958219,-3.74499 -7.140739,-4.04032 -0.123698,-0.20015 20.707749,-12.30799 21.175799,-12.30799 0.49939,0 8.56553,4.7575 8.37513,4.93974 -0.44698,0.42783 -18.79926,10.93029 -19.63206,11.23484 -0.94383,0.34515 -1.83095,0.40063 -2.77813,0.17373 z"
       style="fill:#2b71b8;fill-opacity:1;stroke-width:0.264583" />
  </g>
</svg>
